<?xml version="1.0" encoding="UTF-8"?>
<svg xmlns="http://www.w3.org/2000/svg" viewBox="13 25 260 235">
  <defs>
    <style>
      .st0, .st1, .st2, .st3, .st4 { stroke-linecap: round; stroke-linejoin: round; }
      .st0, .st1, .st2, .st3, .st4, .st5 { stroke: #999; }
      .st0, .st2, .st3, .st4, .st5 { fill: none; }
      .st0, .st2, .st4 { stroke-width: .5px; }
      .st1 { stroke-width: 2px; }
      .st2 { stroke-dasharray: 2 2; }
      .st4 { stroke-dasharray: 2 2; }
      .st5 { stroke-miterlimit: 10; }
    </style>
  </defs>
  <g>
    <g id="FRONT_B">
      <g>
        <path class="st3" d="M69.3,128.9c-8.1-.5-27.5,2.4-27.5,2.4l-23.3-43.2,53.2-32.4"/>
        <path class="st3" d="M218.9,129c8.1-.5,29.9-2.1,29.9-2.1l19.1-42.2-51-31"/>
        <path class="st3" d="M175.4,35.6l41.6,18h0c-11.2,25.6-8.5,60.1,2,75.4v119.9s-149.6,0-149.6,0v-120c2.9,2.3,23.9-43.8,2.4-73.2l41.8-19.8"/>
        <path class="st3" d="M145.5,59c-25.3-1.1-27.7-24.7-26.1-26.2l-5.9,3.1c-.2,16.5,16.4,29.3,31.6,29.3h0s0,0,0,0,0,0,0,0h0c21.9.3,30.4-20.8,30.4-29.6l-6-3.1s0,25.5-23.9,26.5h0Z"/>
      </g>
      <path class="st1" d="M162.9,40.2"/>
      <path class="st1" d="M127.6,40.2"/>
      <path class="st3" d="M119.4,32.8s22.8,17.1,50-.2"/>
      <path class="st3" d="M119.3,38.1s20.8,16.2,49.1.8"/>
    </g>
    <path class="st3" d="M120.4,41.8s18.5,13.7,46.8,1"/>
    <line class="st4" x1="243.3" y1="127.3" x2="263.1" y2="81.5"/>
    <line class="st4" x1="260.8" y1="80.4" x2="240.9" y2="127.4"/>
    <line class="st4" x1="48.2" y1="130.3" x2="25" y2="84.1"/>
    <line class="st4" x1="27.5" y1="83.1" x2="50.4" y2="129.9"/>
    <line class="st4" x1="69.1" y1="242.7" x2="218.9" y2="242.7"/>
    <line class="st4" x1="69.3" y1="241" x2="219.1" y2="241"/>
  </g>
</svg>