<?xml version="1.0" encoding="UTF-8"?>
<svg xmlns="http://www.w3.org/2000/svg" viewBox="3 25 280 235">
  <defs>
    <style>
      .st0, .st1, .st2, .st3, .st4 { stroke-linecap: round; stroke-linejoin: round; }
      .st0, .st1, .st2, .st3, .st4, .st5 { stroke: #999; }
      .st0, .st2, .st3, .st4, .st5 { fill: none; }
      .st0, .st2, .st4 { stroke-width: .5px; }
      .st1 { stroke-width: 2px; }
      .st2 { stroke-dasharray: 2 2; }
      .st4 { stroke-dasharray: 2 2; }
      .st5 { stroke-miterlimit: 10; }
    </style>
  </defs>
  <g>
    <g id="FRONT_B">
      <g>
        <path class="st3" d="M72.7,116.7c-8.1-.5-34.5-1.6-34.5-1.6l-20.4-49,60.6-25.5"/>
        <path class="st3" d="M217.5,120c8.1-.5,32.8-2.9,32.8-2.9l18.6-46.4-56.5-28.4"/>
        <path class="st3" d="M171.3,35l41,7.4h0c-11.2,25.6-5.3,62.3,5.2,77.6l1,133.2H68.9s3.8-136.5,3.8-136.5c2.9,2.3,18.9-33.9,5.7-76.1l39.8-6.9"/>
        <path class="st3" d="M144.5,55.3c-18.9-.6-21.9-21.2-20.4-22.8l-6.1,1.2c1.5,38.1,52.2,33.9,53.2,1.3l-4.7-2.4s2,21.7-22,22.7h0Z"/>
      </g>
      <path class="st3" d="M124.2,32.5s15.1,17.5,42.4.1"/>
      <path class="st3" d="M124.6,38.8s20.1,15.3,41.2.1"/>
    </g>
    <path class="st3" d="M125.7,42.3s17.2,13.8,38.9.6"/>
    <line class="st4" x1="244.7" y1="117.6" x2="263.7" y2="68.4"/>
    <line class="st4" x1="261.4" y1="67.2" x2="242.3" y2="117.7"/>
    <line class="st4" x1="43" y1="115.5" x2="23" y2="64.5"/>
    <line class="st4" x1="25.2" y1="63.5" x2="45.1" y2="115.4"/>
    <line class="st4" x1="68.7" y1="247" x2="218.5" y2="247"/>
    <line class="st4" x1="68.9" y1="245.4" x2="218.6" y2="245.4"/>
    <path class="st4" d="M116.7,34.3c1.5,38.1,54.1,35.7,55.8,1.3"/>
    <line class="st4" x1="74.7" y1="116.3" x2="71.2" y2="253.3"/>
    <line class="st4" x1="215.2" y1="118.2" x2="216" y2="253.3"/>
  </g>
</svg>